# xmcd CD database file
#
# Track frame offsets:
#	150
#	21850
#	37072
#	56357
#	77935
#	109970
#	123250
#	139242
#	154267
#	177722
#	190242
#	199920
#
# Disc length: 2865 seconds
#
# Revision: 3
# Processed by: cddbd v1.5PL3 Copyright (c) Steve Scherf et al.
# Submitted via: CDex 1.51
#
DISCID=b00b2f0c
DTITLE=The Chris Cain Band - Somewhere Along The Way
DYEAR=1995
DGENRE=Blues
TTITLE0=Street of Broken Dreams
TTITLE1=Steppin' on a Highwire
TTITLE2=Don't let the Same Dog Bite You Twice
TTITLE3=On this Fine Morning
TTITLE4=Trouble Makin' Woman
TTITLE5=Movin' Back to Memphis
TTITLE6=Know Who You can Trust
TTITLE7=My Baby's got It
TTITLE8=Before the Rooster Crows
TTITLE9=At the Club
TTITLE10=Skeleton's in Her Closet
TTITLE11=Somewhere along tThe Way
EXTD=YEAR: 1995
EXTT0=
EXTT1=
EXTT2=
EXTT3=
EXTT4=
EXTT5=
EXTT6=
EXTT7=
EXTT8=
EXTT9=
EXTT10=
EXTT11=
PLAYORDER=
